HIERARCHY
ROOT Hips
{
  OFFSET 5.84602e-005 68.8428 3.50346
  CHANNELS 6 Xposition Yposition Zposition Zrotation Xrotation Yrotation
  JOINT Spine
  {
    OFFSET 0 8.597 -4.6522
    CHANNELS 3 Zrotation Xrotation Yrotation
    JOINT Spine1
    {
      OFFSET 0 7.8454 0.4098
      CHANNELS 3 Zrotation Xrotation Yrotation
      JOINT Spine2
      {
        OFFSET 0 9.7078 -2.1609
        CHANNELS 3 Zrotation Xrotation Yrotation
        JOINT Neck
        {
          OFFSET 0 21.8761 -0.4549
          CHANNELS 3 Zrotation Xrotation Yrotation
          JOINT Head
          {
            OFFSET 0 12.3537 3.3602
            CHANNELS 3 Zrotation Xrotation Yrotation
            End Site
            {
              OFFSET 0.0001 18.9506 0.5657
            }
          }
        }
        JOINT LeftShoulder
        {
          OFFSET 2.2086 21.1115 7.2329
          CHANNELS 3 Zrotation Xrotation Yrotation
          JOINT LeftArm
          {
            OFFSET 13.1193 3.0282 -4.8998
            CHANNELS 3 Zrotation Xrotation Yrotation
            JOINT LeftForeArm
            {
              OFFSET 27.4081 -0.0973053 -0.2375
              CHANNELS 3 Zrotation Xrotation Yrotation
              JOINT LeftHand
              {
                OFFSET 22.8641 0.0662994 -0.1369
                CHANNELS 3 Zrotation Xrotation Yrotation
                JOINT LeftHandIndex1
                {
                  OFFSET 8.8614 0.775009 2.4612
                  CHANNELS 3 Zrotation Xrotation Yrotation
                  JOINT LeftHandIndex2
                  {
                    OFFSET 3.3146 -0.808304 0.5841
                    CHANNELS 3 Zrotation Xrotation Yrotation
                    JOINT LeftHandIndex3
                    {
                      OFFSET 2.2628 -0.552002 0.3989
                      CHANNELS 3 Zrotation Xrotation Yrotation
                      End Site
                      {
                        OFFSET 1.6102 -0.4807 0.2612
                      }
                    }
                  }
                }
                JOINT LeftHandMiddle1
                {
                  OFFSET 8.9937 0.895004 0.2143
                  CHANNELS 3 Zrotation Xrotation Yrotation
                  JOINT LeftHandMiddle2
                  {
                    OFFSET 4.0984 0.0113983 -0.0242
                    CHANNELS 3 Zrotation Xrotation Yrotation
                    JOINT LeftHandMiddle3
                    {
                      OFFSET 2.2716 0.00689697 -0.0138001
                      CHANNELS 3 Zrotation Xrotation Yrotation
                      End Site
                      {
                        OFFSET 2.0404 -0.1441 0.0027
                      }
                    }
                  }
                }
                JOINT LeftHandRing1
                {
                  OFFSET 8.5234 0.597198 -2.0164
                  CHANNELS 3 Zrotation Xrotation Yrotation
                  JOINT LeftHandRing2
                  {
                    OFFSET 3.7188 -0.188293 -0.2328
                    CHANNELS 3 Zrotation Xrotation Yrotation
                    JOINT LeftHandRing3
                    {
                      OFFSET 2.1191 -0.106598 -0.1332
                      CHANNELS 3 Zrotation Xrotation Yrotation
                      End Site
                      {
                        OFFSET 1.8737 -0.2304 -0.0886
                      }
                    }
                  }
                }
                JOINT LeftHandPinky1
                {
                  OFFSET 7.9094 -0.601089 -3.4825
                  CHANNELS 3 Zrotation Xrotation Yrotation
                  JOINT LeftHandPinky2
                  {
                    OFFSET 2.2874 -0.477005 -0.6314
                    CHANNELS 3 Zrotation Xrotation Yrotation
                    JOINT LeftHandPinky3
                    {
                      OFFSET 1.6774 -0.349396 -0.4633
                      CHANNELS 3 Zrotation Xrotation Yrotation
                      End Site
                      {
                        OFFSET 1.4888 -0.4091 -0.3416
                      }
                    }
                  }
                }
                JOINT LeftHandThumb1
                {
                  OFFSET 1.833 -1.3875 1.3896
                  CHANNELS 3 Zrotation Xrotation Yrotation
                  JOINT LeftHandThumb2
                  {
                    OFFSET 3.4129 -1.121 2.5732
                    CHANNELS 3 Zrotation Xrotation Yrotation
                    JOINT LeftHandThumb3
                    {
                      OFFSET 2.2474 -0.804199 1.6192
                      CHANNELS 3 Zrotation Xrotation Yrotation
                      End Site
                      {
                        OFFSET 1.6527 -0.5689 1.1317
                      }
                    }
                  }
                }
              }
            }
          }
        }
        JOINT RightShoulder
        {
          OFFSET -2.2086 21.1115 7.2329
          CHANNELS 3 Zrotation Xrotation Yrotation
          JOINT RightArm
          {
            OFFSET -13.1216 3.0287 -4.9007
            CHANNELS 3 Zrotation Xrotation Yrotation
            JOINT RightForeArm
            {
              OFFSET -27.4081 -0.0973053 -0.2375
              CHANNELS 3 Zrotation Xrotation Yrotation
              JOINT RightHand
              {
                OFFSET -22.8641 0.0664063 -0.1369
                CHANNELS 3 Zrotation Xrotation Yrotation
                JOINT RightHandIndex1
                {
                  OFFSET -8.8614 0.774994 2.4612
                  CHANNELS 3 Zrotation Xrotation Yrotation
                  JOINT RightHandIndex2
                  {
                    OFFSET -3.3146 -0.808304 0.5841
                    CHANNELS 3 Zrotation Xrotation Yrotation
                    JOINT RightHandIndex3
                    {
                      OFFSET -2.2628 -0.552002 0.3989
                      CHANNELS 3 Zrotation Xrotation Yrotation
                      End Site
                      {
                        OFFSET -1.6102 -0.4807 0.2612
                      }
                    }
                  }
                }
                JOINT RightHandMiddle1
                {
                  OFFSET -8.9937 0.894989 0.2143
                  CHANNELS 3 Zrotation Xrotation Yrotation
                  JOINT RightHandMiddle2
                  {
                    OFFSET -4.0984 0.0113983 -0.0242
                    CHANNELS 3 Zrotation Xrotation Yrotation
                    JOINT RightHandMiddle3
                    {
                      OFFSET -2.2716 0.00691223 -0.0138001
                      CHANNELS 3 Zrotation Xrotation Yrotation
                      End Site
                      {
                        OFFSET -2.0404 -0.1441 0.0027
                      }
                    }
                  }
                }
                JOINT RightHandRing1
                {
                  OFFSET -8.5234 0.597198 -2.0164
                  CHANNELS 3 Zrotation Xrotation Yrotation
                  JOINT RightHandRing2
                  {
                    OFFSET -3.7188 -0.188309 -0.2328
                    CHANNELS 3 Zrotation Xrotation Yrotation
                    JOINT RightHandRing3
                    {
                      OFFSET -2.1191 -0.106598 -0.1332
                      CHANNELS 3 Zrotation Xrotation Yrotation
                      End Site
                      {
                        OFFSET -1.8737 -0.2304 -0.0886
                      }
                    }
                  }
                }
                JOINT RightHandPinky1
                {
                  OFFSET -7.9094 -0.601105 -3.4825
                  CHANNELS 3 Zrotation Xrotation Yrotation
                  JOINT RightHandPinky2
                  {
                    OFFSET -2.2874 -0.477005 -0.6314
                    CHANNELS 3 Zrotation Xrotation Yrotation
                    JOINT RightHandPinky3
                    {
                      OFFSET -1.6774 -0.349396 -0.4633
                      CHANNELS 3 Zrotation Xrotation Yrotation
                      End Site
                      {
                        OFFSET -1.4888 -0.4091 -0.3416
                      }
                    }
                  }
                }
                JOINT RightHandThumb1
                {
                  OFFSET -1.833 -1.38751 1.3896
                  CHANNELS 3 Zrotation Xrotation Yrotation
                  JOINT RightHandThumb2
                  {
                    OFFSET -3.41299 -1.12099 2.5732
                    CHANNELS 3 Zrotation Xrotation Yrotation
                    JOINT RightHandThumb3
                    {
                      OFFSET -2.24741 -0.804108 1.6192
                      CHANNELS 3 Zrotation Xrotation Yrotation
                      End Site
                      {
                        OFFSET -1.6527 -0.5689 1.1317
                      }
                    }
                  }
                }
              }
            }
          }
        }
      }
    }
  }
  JOINT RightUpLeg
  {
    OFFSET -9.1966 3.8861 -0.7581
    CHANNELS 3 Zrotation Xrotation Yrotation
    JOINT RightLeg
    {
      OFFSET -0.7359 -41.0265 0
      CHANNELS 3 Zrotation Xrotation Yrotation
      JOINT RightFoot
      {
        OFFSET 0 -40.2855 0
        CHANNELS 3 Zrotation Xrotation Yrotation
        JOINT RightToeBase
        {
          OFFSET 0 -5.6122 11.7359
          CHANNELS 3 Zrotation Xrotation Yrotation
          End Site
          {
            OFFSET 0 0 7.8731
          }
        }
      }
    }
  }
  JOINT LeftUpLeg
  {
    OFFSET 9.1965 3.8864 -0.7581
    CHANNELS 3 Zrotation Xrotation Yrotation
    JOINT LeftLeg
    {
      OFFSET 0.7359 -41.0268 0
      CHANNELS 3 Zrotation Xrotation Yrotation
      JOINT LeftFoot
      {
        OFFSET 0 -40.2855 0
        CHANNELS 3 Zrotation Xrotation Yrotation
        JOINT LeftToeBase
        {
          OFFSET 0 -5.6122 11.7359
          CHANNELS 3 Zrotation Xrotation Yrotation
          End Site
          {
            OFFSET 0 0 7.8731
          }
        }
      }
    }
  }
}
MOTION
Frames:	5
Frame Time:	0.0333333
5.84602e-005 68.8428 3.50346 0 0 -0 0 0 -0 0 0 -0 0 0 -0 0 0 -0.00657023 0 0 -0 0 0 -0 0 0 -0 0 0 -0 0 0 -0 0 0 -0 0 0 -0 0 0 -0 0 0 -0 -0.0146107 -8.87603e-005 -2.63497e-007 2.99804e-018 -2.42657e-020 -1.42182e-022 0 0 -0 -0.0187562 -0.001176 5.858e-005 5.06224e-018 3.88251e-019 1.21329e-020 0 0 -0 -0.012269 -0.00324817 0.000675346 -1.74678e-018 3.88251e-019 -0 0 0 -0 0 0 -0 0 0 -0 0 0 -0 0 0 -0 0 0 -0 0 0 -0 0 0 -0 0 0 -0 0 0 -0 0 0 -0 0.0149955 -9.10982e-005 2.64101e-007 -9.69331e-018 1.21329e-020 -4.7394e-023 0 0 -0 0.0189956 -0.00119102 -5.96516e-005 -5.41541e-019 0 2.42657e-020 0 0 -0 0.0122698 -0.00324857 -0.000673756 -2.00796e-019 0 -1.94126e-019 0 0 -0 0 0 -0 0 0 -0 3.39842 1.33031 -0.0637918 -5.65207e-008 0.834868 -0.000436188 -3.39935 -2.16518 -0.0642563 -8.89002e-024 -1.18485e-023 -1.48106e-024 -3.39844 1.35642 0.0640283 -3.18788e-007 0.782166 -0.000588827 3.39931 -2.13858 0.0634662 1.1399e-023 0 -0 
-0.595827 61.6829 2.42023 0 8.99857 -0 -0.625489 -1.37149 -0.247489 -1.25744 -2.74018 -0.510164 -1.25744 -2.74019 -0.510165 0.110151 0.148524 -0.00658119 -9.87129e-007 0.176601 -2.12361e-007 3.29637 10.3678 -3.47347 -52.9403 -1.27616 -14.8203 -19.3842 29.7533 -71.0446 -8.48292 1.41744 9.30855 2.10762e-007 -1.66702e-007 -2.19295e-007 -1.13487e-007 8.97624e-008 1.18082e-007 -2.43187e-007 1.92348e-007 2.53033e-007 2.10762e-007 -1.66702e-007 -2.19295e-007 -0.0146304 -8.54345e-005 -9.09905e-007 -2.43187e-007 1.92316e-007 2.53058e-007 2.10762e-007 -1.66702e-007 -2.19295e-007 -0.0187368 -0.00117567 5.64663e-005 -1.2911e-006 2.78049e-008 -6.02998e-007 2.10762e-007 -1.66702e-007 -2.19295e-007 -0.0122321 -0.00324039 0.000675106 -2.43179e-007 1.92322e-007 2.5306e-007 2.10762e-007 -1.66702e-007 -2.19295e-007 -1.13487e-007 8.97624e-008 1.18082e-007 -2.43187e-007 1.92348e-007 2.53033e-007 -3.63069 9.99333 2.98176 52.6785 -1.39293 14.9449 19.2734 29.3106 70.2639 10.1407 1.55921 -8.38091 -1.28453e-007 -1.1167e-007 1.28671e-007 3.18055e-015 6.36111e-015 3.18055e-015 -3.8536e-007 -3.35009e-007 3.86013e-007 -1.28453e-007 -1.1167e-007 1.28671e-007 0.0150125 -9.32293e-005 2.4184e-006 -3.85357e-007 -3.34958e-007 3.86057e-007 -1.28453e-007 -1.1167e-007 1.28671e-007 0.0190006 -0.00118648 -5.7247e-005 -3.85353e-007 -3.34945e-007 3.86073e-007 -1.28453e-007 -1.1167e-007 1.28671e-007 0.0122553 -0.0032453 -0.000683003 -3.85345e-007 -3.3497e-007 3.8606e-007 -1.28453e-007 -1.1167e-007 1.28671e-007 3.18055e-015 6.36111e-015 3.18055e-015 -3.8536e-007 -3.35009e-007 3.86013e-007 -25.0562 -39.1302 -35.3625 -145.276 46.5119 145.638 11.6209 25.5231 13.0343 -1.61157e-006 -4.02689e-008 -9.6679e-007 21.5399 -37.3743 33.994 145.605 46.2079 -145.852 -9.6278 26.1709 -12.682 1.58136e-006 -3.76242e-009 1.0244e-006 
-0.595861 61.7276 2.94032 0 7.83739 -0 -0.628441 -0.98593 -0.24424 -1.26136 -1.96904 -0.499395 -1.26136 -1.96904 -0.499395 0.144803 0.194917 -0.00654283 -2.88455e-010 0.231433 -1.33025e-007 3.4689 9.52142 -3.69316 -52.9403 -1.27617 -14.8203 -19.3293 29.576 -70.6169 -8.43965 1.15638 9.03328 -1.94164e-007 1.54183e-007 2.02566e-007 -5.5013e-007 4.36852e-007 5.73936e-007 6.47212e-008 -5.13944e-008 -6.75218e-008 -1.94164e-007 1.54183e-007 2.02566e-007 -0.0145837 -8.83564e-005 2.77431e-007 6.47212e-008 -5.13858e-008 -6.75284e-008 -1.94164e-007 1.54183e-007 2.02566e-007 -0.0187337 -0.00117363 6.06951e-005 6.47206e-008 -5.13834e-008 -6.75309e-008 -1.94164e-007 1.54183e-007 2.02566e-007 -0.012263 -0.00324736 0.000670035 6.4719e-008 -5.13875e-008 -6.75292e-008 -1.94164e-007 1.54183e-007 2.02566e-007 -5.5013e-007 4.36852e-007 5.73936e-007 6.47212e-008 -5.13944e-008 -6.75218e-008 -3.79541 9.15795 3.22679 52.6785 -1.39293 14.9449 19.2191 29.1459 69.8592 10.0498 1.3026 -8.13915 -1.28179e-007 -1.11932e-007 1.28713e-007 -3.84538e-007 -3.35796e-007 3.8614e-007 -5.12717e-007 -4.47728e-007 5.14853e-007 -1.28179e-007 -1.11932e-007 1.28713e-007 0.0149945 -8.88633e-005 4.68907e-006 -5.12714e-007 -4.47661e-007 5.14912e-007 -1.28179e-007 -1.11932e-007 1.28713e-007 0.019006 -0.00119338 -6.0307e-005 -5.12708e-007 -4.47643e-007 5.14933e-007 -1.28179e-007 -1.11932e-007 1.28713e-007 0.012282 -0.00324966 -0.000679307 -5.12697e-007 -4.47677e-007 5.14916e-007 -1.28179e-007 -1.11932e-007 1.28713e-007 -3.84538e-007 -3.35796e-007 3.8614e-007 -5.12717e-007 -4.47728e-007 5.14853e-007 -25.2054 -37.3627 -35.1536 -144.833 46.8786 145.365 11.0582 25.4239 13.329 5.19692e-008 2.01793e-006 -6.32814e-007 21.7149 -35.593 33.8279 145.148 46.5924 -145.571 -9.11165 26.0745 -12.9423 2.30767e-006 1.16942e-007 5.96125e-007 
-0.595912 61.7755 3.45968 0 6.67428 -0 -0.631104 -0.595251 -0.240826 -1.2648 -1.1878 -0.488235 -1.2648 -1.1878 -0.488235 0.179111 0.240612 -0.00661805 4.20246e-009 0.286268 4.97667e-008 3.6376 8.67319 -3.91004 -52.9403 -1.27616 -14.8203 -19.273 29.3991 -70.1894 -8.39763 0.895052 8.75818 -8.07264e-008 6.43691e-008 8.44741e-008 -6.45811e-007 5.14953e-007 6.75793e-007 -3.87487e-007 3.08972e-007 4.05476e-007 -8.07264e-008 6.43691e-008 8.44741e-008 -0.0146535 -8.94353e-005 1.75986e-006 -3.87487e-007 3.0892e-007 4.05516e-007 -8.07264e-008 6.43691e-008 8.44741e-008 -0.018748 -0.00117651 6.03589e-005 -3.87483e-007 3.08905e-007 4.0553e-007 -8.07264e-008 6.43691e-008 8.44741e-008 -0.0122691 -0.00325007 0.000684352 -3.87474e-007 3.0893e-007 4.0552e-007 -8.07264e-008 6.43691e-008 8.44741e-008 -6.45811e-007 5.14953e-007 6.75793e-007 -3.87487e-007 3.08972e-007 4.05476e-007 -3.95659 8.32068 3.46893 52.6785 -1.39293 14.9449 19.1636 28.9815 69.4548 9.95987 1.04559 -7.89777 -7.67302e-007 -6.73129e-007 7.72684e-007 1.27884e-007 1.12188e-007 -1.28781e-007 1.27884e-007 1.12188e-007 -1.28781e-007 -7.67302e-007 -6.73129e-007 7.72684e-007 0.0149853 -9.08293e-005 5.48147e-006 1.27883e-007 1.12171e-007 -1.28795e-007 -7.67302e-007 -6.73129e-007 7.72684e-007 0.0189714 -0.00118678 -5.66401e-005 1.27881e-007 1.12167e-007 -1.28801e-007 -7.67302e-007 -6.73129e-007 7.72684e-007 0.0122554 -0.00324622 -0.000683851 5.88744e-007 4.32153e-008 4.46549e-007 -7.67302e-007 -6.73129e-007 7.72684e-007 1.27884e-007 1.12188e-007 -1.28781e-007 1.27884e-007 1.12188e-007 -1.28781e-007 -25.3572 -35.5894 -34.9419 -144.384 47.2437 145.085 10.4969 25.3221 13.6221 -3.73875e-006 3.30713e-007 3.89057e-007 21.8905 -33.8063 33.6572 144.686 46.9751 -145.284 -8.59684 25.9762 -13.2012 -7.25886e-007 -1.2139e-007 4.28063e-007 
-0.595977 61.8264 3.97821 0 5.50949 -0 -0.63372 -0.200389 -0.23732 -1.26829 -0.397899 -0.47685 -1.26829 -0.397897 -0.47685 0.214095 0.287279 -0.00970707 4.98417e-007 0.341105 -2.87095e-008 3.80344 7.8241 -4.1239 -52.9403 -1.27615 -14.8203 -19.2153 29.2225 -69.7625 -8.3542 0.633492 8.48324 1.77185e-007 -1.41891e-007 -1.86025e-007 -6.28201e-007 5.03069e-007 6.59542e-007 -3.64656e-006 1.17936e-006 -5.05945e-007 1.77185e-007 -1.41891e-007 -1.86025e-007 -0.0145966 -8.70807e-005 -5.34417e-006 -3.64677e-006 1.17942e-006 -5.05792e-007 1.77185e-007 -1.41891e-007 -1.86025e-007 -0.0187595 -0.00117344 6.18518e-005 -3.64684e-006 1.17942e-006 -5.05714e-007 1.77185e-007 -1.41891e-007 -1.86025e-007 -0.0122504 -0.00323358 0.000672727 -3.64675e-006 1.17939e-006 -5.05707e-007 1.77185e-007 -1.41891e-007 -1.86025e-007 -6.28201e-007 5.03069e-007 6.59542e-007 -3.64656e-006 1.17936e-006 -5.05945e-007 -4.1134 7.48249 3.70867 52.6785 -1.39293 14.9449 19.1068 28.8174 69.0508 9.87106 0.788162 -7.65678 3.18055e-015 3.18055e-015 -3.18055e-015 -3.82708e-007 -3.37315e-007 3.8661e-007 -2.55139e-007 -2.24877e-007 2.5774e-007 3.18055e-015 3.18055e-015 -3.18055e-015 0.015013 -9.19974e-005 5.01412e-006 -2.55137e-007 -2.24843e-007 2.57769e-007 3.18055e-015 3.18055e-015 -3.18055e-015 0.0190869 -0.00119942 -5.81784e-005 -2.55134e-007 -2.24834e-007 2.5778e-007 3.18055e-015 3.18055e-015 -3.18055e-015 0.0122265 -0.00323298 -0.000673174 2.04217e-007 -3.04214e-007 8.12236e-007 3.18055e-015 3.18055e-015 -3.18055e-015 -3.82708e-007 -3.37315e-007 3.8661e-007 -2.55139e-007 -2.24877e-007 2.5774e-007 -25.5121 -33.8111 -34.7275 -143.93 47.6071 144.798 9.93709 25.2179 13.9136 -0 0 3.18055e-015 22.0672 -32.014 33.4821 144.217 47.3561 -144.989 -8.08334 25.8759 -13.4587 3.18055e-015 6.36111e-015 -0 
